<?xml version="1.0" standalone="no"?>
<!DOCTYPE svg PUBLIC "-//W3C//DTD SVG 20010904//EN"
 "http://www.w3.org/TR/2001/REC-SVG-20010904/DTD/svg10.dtd">
<svg version="1.0" xmlns="http://www.w3.org/2000/svg"
 width="16.000000pt" height="16.000000pt" viewBox="0 0 16.000000 16.000000"
 preserveAspectRatio="xMidYMid meet">
<metadata>
Created by potrace 1.11, written by Peter Selinger 2001-2013
</metadata>
<g transform="translate(0.000000,16.000000) scale(0.006015,-0.006015)"
fill="#000000" stroke="none">
<path d="M83 2219 c-77 -38 -73 7 -73 -870 0 -877 -4 -830 72 -868 39 -19 61
-20 370 -21 356 -1 387 3 436 51 45 44 51 80 52 357 4 519 0 1208 -6 1247 -8
51 -35 88 -78 109 -30 14 -80 16 -384 15 -325 -1 -353 -2 -389 -20z m711 -100
c16 -8 25 -21 28 -43 2 -17 3 -356 3 -754 0 -710 -1 -724 -20 -735 -11 -6 -30
-13 -42 -14 -19 -3 -23 1 -24 24 0 36 0 1469 0 1506 1 30 15 34 55 16z"/>
<path d="M1232 2220 c-78 -36 -75 4 -76 -845 0 -412 3 -772 7 -799 5 -26 16
-56 25 -66 43 -44 51 -45 418 -48 338 -3 353 -2 396 18 61 28 79 64 86 165 l5
83 35 7 c19 3 59 17 90 31 30 13 56 23 57 22 2 -2 43 -82 93 -178 108 -209
114 -213 207 -160 71 41 92 71 76 107 -10 21 -91 133 -111 153 -3 3 -32 41
-64 85 -33 44 -63 81 -68 83 -4 2 10 27 32 57 114 154 160 339 154 621 -6 305
-107 497 -319 604 -139 70 -202 78 -630 79 -348 1 -373 0 -413 -19z m738 -161
c3 -4 5 -332 4 -730 l-1 -722 -23 -19 c-22 -18 -59 -25 -61 -10 -3 24 -4 1460
0 1475 3 13 12 17 40 15 20 -1 38 -5 41 -9z m254 -71 c73 -52 119 -118 151
-220 30 -93 38 -154 38 -263 0 -299 -82 -491 -247 -576 -36 -19 -67 -31 -71
-27 -7 7 -7 1126 0 1138 7 11 84 -21 129 -52z"/>
</g>
</svg>
